<svg width="81" height="80" viewBox="0 0 81 80" fill="none" xmlns="http://www.w3.org/2000/svg">
<path d="M12.2457 68.3333C15.0123 71.1 19.479 71.1 22.2457 68.3333L65.579 25C68.3457 22.2333 68.3457 17.7667 65.579 15C62.8123 12.2333 58.3457 12.2333 55.579 15L12.2457 58.3333C9.47899 61.1 9.47899 65.5667 12.2457 68.3333Z" stroke="#52B69A" stroke-width="3" stroke-linecap="round" stroke-linejoin="round"/>
<path d="M60.6125 29.9667L50.6125 19.9667" stroke="#52B69A" stroke-width="3" stroke-linecap="round" stroke-linejoin="round"/>
<path d="M28.9124 8.13333L33.9124 6.66666L32.4457 11.6667L33.9124 16.6667L28.9124 15.2L23.9124 16.6667L25.379 11.6667L23.9124 6.66666L28.9124 8.13333Z" stroke="#52B69A" stroke-width="3" stroke-linecap="round" stroke-linejoin="round"/>
<path d="M15.5791 28.1333L20.5791 26.6667L19.1124 31.6667L20.5791 36.6667L15.5791 35.2L10.5791 36.6667L12.0458 31.6667L10.5791 26.6667L15.5791 28.1333Z" stroke="#52B69A" stroke-width="3" stroke-linecap="round" stroke-linejoin="round"/>
<path d="M65.5791 44.8L70.5791 43.3333L69.1124 48.3333L70.5791 53.3333L65.5791 51.8667L60.5791 53.3333L62.0458 48.3333L60.5791 43.3333L65.5791 44.8Z" stroke="#52B69A" stroke-width="3" stroke-linecap="round" stroke-linejoin="round"/>
</svg>
