<svg width="17" height="16" viewBox="0 0 17 16" fill="none" xmlns="http://www.w3.org/2000/svg">
<path d="M5.83338 14.6667H11.1667C13.8467 14.6667 14.3267 13.5933 14.4667 12.2867L14.9667 6.95333C15.1467 5.32667 14.68 4 11.8334 4H5.16671C2.32005 4 1.85338 5.32667 2.03338 6.95333L2.53338 12.2867C2.67338 13.5933 3.15338 14.6667 5.83338 14.6667Z" stroke="#184E77" stroke-width="1.5" stroke-miterlimit="10" stroke-linecap="round" stroke-linejoin="round"/>
<path d="M5.8335 3.99998V3.46665C5.8335 2.28665 5.8335 1.33331 7.96683 1.33331H9.0335C11.1668 1.33331 11.1668 2.28665 11.1668 3.46665V3.99998" stroke="#184E77" stroke-width="1.5" stroke-miterlimit="10" stroke-linecap="round" stroke-linejoin="round"/>
<path d="M9.83317 8.66667V9.33333C9.83317 9.34 9.83317 9.34 9.83317 9.34667C9.83317 10.0733 9.8265 10.6667 8.49984 10.6667C7.17984 10.6667 7.1665 10.08 7.1665 9.35333V8.66667C7.1665 8 7.1665 8 7.83317 8H9.1665C9.83317 8 9.83317 8 9.83317 8.66667Z" stroke="#184E77" stroke-width="1.5" stroke-miterlimit="10" stroke-linecap="round" stroke-linejoin="round"/>
<path d="M14.9335 7.33331C13.3935 8.45331 11.6335 9.11998 9.8335 9.34665" stroke="#184E77" stroke-width="1.5" stroke-miterlimit="10" stroke-linecap="round" stroke-linejoin="round"/>
<path d="M2.24658 7.51331C3.74658 8.53997 5.43992 9.15997 7.16658 9.35331" stroke="#184E77" stroke-width="1.5" stroke-miterlimit="10" stroke-linecap="round" stroke-linejoin="round"/>
</svg>
