<svg width="81" height="80" viewBox="0 0 81 80" fill="none" xmlns="http://www.w3.org/2000/svg">
<path d="M32.4211 66.6667H48.4211C61.7544 66.6667 67.0877 61.3333 67.0877 48V32C67.0877 18.6667 61.7544 13.3333 48.4211 13.3333H32.4211C19.0877 13.3333 13.7544 18.6667 13.7544 32V48C13.7544 61.3333 19.0877 66.6667 32.4211 66.6667Z" stroke="#52B69A" stroke-width="3" stroke-linecap="round" stroke-linejoin="round"/>
<path d="M35.4211 56.6667H45.4211C53.7544 56.6667 57.0877 53.3333 57.0877 45V35C57.0877 26.6667 53.7544 23.3333 45.4211 23.3333H35.4211C27.0877 23.3333 23.7544 26.6667 23.7544 35V45C23.7544 53.3333 27.0877 56.6667 35.4211 56.6667Z" stroke="#52B69A" stroke-width="3" stroke-linecap="round" stroke-linejoin="round"/>
<path d="M27.121 13.3333V6.66666" stroke="#52B69A" stroke-width="3" stroke-linecap="round" stroke-linejoin="round"/>
<path d="M40.421 13.3333V6.66666" stroke="#52B69A" stroke-width="3" stroke-linecap="round" stroke-linejoin="round"/>
<path d="M53.7544 13.3333V6.66666" stroke="#05B993" stroke-width="3" stroke-linecap="round" stroke-linejoin="round"/>
<path d="M67.0876 26.6667H73.7543" stroke="#05B993" stroke-width="1.5" stroke-linecap="round" stroke-linejoin="round"/>
<path d="M67.0876 40H73.7543" stroke="#05B993" stroke-width="1.5" stroke-linecap="round" stroke-linejoin="round"/>
<path d="M67.0876 53.3333H73.7543" stroke="#05B993" stroke-width="1.5" stroke-linecap="round" stroke-linejoin="round"/>
<path d="M53.7544 66.6667V73.3333" stroke="#05B993" stroke-width="1.5" stroke-linecap="round" stroke-linejoin="round"/>
<path d="M40.4543 66.6667V73.3333" stroke="#05B993" stroke-width="1.5" stroke-linecap="round" stroke-linejoin="round"/>
<path d="M27.121 66.6667V73.3333" stroke="#05B993" stroke-width="1.5" stroke-linecap="round" stroke-linejoin="round"/>
<path d="M7.08765 26.6667H13.7543" stroke="#05B993" stroke-width="1.5" stroke-linecap="round" stroke-linejoin="round"/>
<path d="M7.08765 40H13.7543" stroke="#05B993" stroke-width="1.5" stroke-linecap="round" stroke-linejoin="round"/>
<path d="M7.08765 53.3333H13.7543" stroke="#05B993" stroke-width="1.5" stroke-linecap="round" stroke-linejoin="round"/>
<path d="M40.421 32.3333L37.2877 37.8C36.5877 39 37.1543 40 38.5543 40H42.2877C43.6877 40 44.2543 41 43.5543 42.2L40.421 47.6667" stroke="#05B993" stroke-width="1.5" stroke-linecap="round" stroke-linejoin="round"/>
</svg>
