<svg width="81" height="80" viewBox="0 0 81 80" fill="none" xmlns="http://www.w3.org/2000/svg">
<path d="M67.1667 46.6667C70.8486 46.6667 73.8333 43.6819 73.8333 40C73.8333 36.3181 70.8486 33.3333 67.1667 33.3333C63.4848 33.3333 60.5 36.3181 60.5 40C60.5 43.6819 63.4848 46.6667 67.1667 46.6667Z" stroke="#52B69A" stroke-width="3" stroke-linecap="round" stroke-linejoin="round"/>
<path d="M67.1667 20C70.8486 20 73.8333 17.0152 73.8333 13.3333C73.8333 9.65143 70.8486 6.66666 67.1667 6.66666C63.4848 6.66666 60.5 9.65143 60.5 13.3333C60.5 17.0152 63.4848 20 67.1667 20Z" stroke="#52B69A" stroke-width="3" stroke-linecap="round" stroke-linejoin="round"/>
<path d="M67.1667 73.3333C70.8486 73.3333 73.8333 70.3486 73.8333 66.6667C73.8333 62.9848 70.8486 60 67.1667 60C63.4848 60 60.5 62.9848 60.5 66.6667C60.5 70.3486 63.4848 73.3333 67.1667 73.3333Z" stroke="#52B69A" stroke-width="3" stroke-linecap="round" stroke-linejoin="round"/>
<path d="M13.8334 46.6667C17.5153 46.6667 20.5001 43.6819 20.5001 40C20.5001 36.3181 17.5153 33.3333 13.8334 33.3333C10.1515 33.3333 7.16675 36.3181 7.16675 40C7.16675 43.6819 10.1515 46.6667 13.8334 46.6667Z" stroke="#52B69A" stroke-width="3" stroke-linecap="round" stroke-linejoin="round"/>
<path d="M20.5 40H60.5" stroke="#52B69A" stroke-width="3" stroke-linecap="round" stroke-linejoin="round"/>
<path d="M60.5001 13.3333H47.1667C40.5001 13.3333 37.1667 16.6667 37.1667 23.3333V56.6667C37.1667 63.3333 40.5001 66.6667 47.1667 66.6667H60.5001" stroke="#52B69A" stroke-width="3" stroke-linecap="round" stroke-linejoin="round"/>
</svg>
