<svg width="24" height="24" viewBox="0 0 24 24" fill="none" xmlns="http://www.w3.org/2000/svg">
<g id="Gear" clip-path="url(#clip0_1081_2033)">
<path id="Vector" d="M12 15.75C14.0711 15.75 15.75 14.0711 15.75 12C15.75 9.92893 14.0711 8.25 12 8.25C9.92893 8.25 8.25 9.92893 8.25 12C8.25 14.0711 9.92893 15.75 12 15.75Z" stroke="#A3A3A3" stroke-width="1.5" stroke-linecap="round" stroke-linejoin="round"/>
<path id="Vector_2" d="M3.884 16.6964C3.4696 15.9826 3.15212 15.2168 2.93994 14.4192L4.51307 12.4504C4.49525 12.1494 4.49525 11.8477 4.51307 11.5467L2.94088 9.57793C3.1527 8.78019 3.46953 8.01412 3.88307 7.2998L6.38713 7.01855C6.58709 6.79327 6.80028 6.58008 7.02557 6.38012L7.30682 3.87699C8.0201 3.46543 8.78492 3.15048 9.58119 2.94043L11.5499 4.51355C11.8509 4.49574 12.1527 4.49574 12.4537 4.51355L14.4224 2.94137C15.2202 3.15319 15.9863 3.47002 16.7006 3.88355L16.9818 6.38762C17.2071 6.58758 17.4203 6.80077 17.6203 7.02605L20.1234 7.3073C20.5378 8.02108 20.8553 8.78688 21.0674 9.58449L19.4943 11.5532C19.5121 11.8542 19.5121 12.156 19.4943 12.457L21.0665 14.4257C20.8562 15.2232 20.5409 15.9893 20.129 16.7039L17.6249 16.9851C17.425 17.2104 17.2118 17.4236 16.9865 17.6236L16.7053 20.1267C15.9915 20.5411 15.2257 20.8586 14.4281 21.0707L12.4593 19.4976C12.1583 19.5154 11.8566 19.5154 11.5556 19.4976L9.58682 21.0698C8.78931 20.8595 8.02325 20.5442 7.30869 20.1323L7.02744 17.6282C6.80215 17.4283 6.58897 17.2151 6.389 16.9898L3.884 16.6964Z" stroke="#A3A3A3" stroke-width="1.5" stroke-linecap="round" stroke-linejoin="round"/>
</g>
<defs>
<clipPath id="clip0_1081_2033">
<rect width="24" height="24" fill="white"/>
</clipPath>
</defs>
</svg>
