<svg width="16" height="16" viewBox="0 0 16 16" fill="none" xmlns="http://www.w3.org/2000/svg">
<path d="M2.33346 13.6667C2.88679 14.22 3.78012 14.22 4.33346 13.6667L13.0001 5.00002C13.5535 4.44669 13.5535 3.55336 13.0001 3.00002C12.4468 2.44669 11.5535 2.44669 11.0001 3.00002L2.33346 11.6667C1.78012 12.22 1.78012 13.1134 2.33346 13.6667Z" stroke="#A3A3A3" stroke-width="1.5" stroke-linecap="round" stroke-linejoin="round"/>
<path d="M12.0068 5.99335L10.0068 3.99335" stroke="#A3A3A3" stroke-width="1.5" stroke-linecap="round" stroke-linejoin="round"/>
<path d="M5.6665 1.62665L6.6665 1.33331L6.37317 2.33331L6.6665 3.33331L5.6665 3.03998L4.6665 3.33331L4.95984 2.33331L4.6665 1.33331L5.6665 1.62665Z" stroke="#A3A3A3" stroke-linecap="round" stroke-linejoin="round"/>
<path d="M3 5.62665L4 5.33331L3.70667 6.33331L4 7.33331L3 7.03998L2 7.33331L2.29333 6.33331L2 5.33331L3 5.62665Z" stroke="#A3A3A3" stroke-linecap="round" stroke-linejoin="round"/>
<path d="M13 8.96002L14 8.66669L13.7067 9.66669L14 10.6667L13 10.3734L12 10.6667L12.2933 9.66669L12 8.66669L13 8.96002Z" stroke="#A3A3A3" stroke-linecap="round" stroke-linejoin="round"/>
</svg>
