<?xml version="1.0" standalone="no"?>
<!DOCTYPE svg PUBLIC "-//W3C//DTD SVG 1.1//EN" "http://www.w3.org/Graphics/SVG/1.1/DTD/svg11.dtd">
<svg xmlns="http://www.w3.org/2000/svg" width="1268" height="451" viewBox="0 0 1268 451" fill="none">
<g clip-path="url(#clip0_303_16)">
<path d="M324.136 98.6563L225.486 0L0 225.501L98.6496 324.158L14.0946 408.718L42.2788 436.904L126.836 352.341L225.486 450.998L450.972 225.496L352.322 126.84L436.88 42.2767L408.696 14.0906L324.138 98.6538L324.136 98.6563ZM394.598 225.501L225.483 394.628L155.02 324.16L324.136 155.034L394.598 225.501ZM295.949 126.845L126.834 295.971L56.3684 225.501L225.483 56.3747L295.949 126.845Z" fill="#25B74B"/>
<path d="M509.493 27.9499H574.686C630.905 27.9499 666.01 62.0005 666.01 117.96C666.01 173.92 630.905 207.443 574.686 207.443H509.493V27.9499ZM629.851 117.96C629.851 79.4223 609.264 56.7202 574.686 56.7202H545.125V178.67H574.686C609.261 178.67 629.851 156.234 629.851 117.96Z" fill="black"/>
<path d="M741.286 211.403C698.527 211.403 672.396 183.16 672.396 136.965C672.396 90.7708 698.791 62.0005 739.966 62.0005C781.141 62.0005 807.008 89.9803 807.008 135.645V143.563H707.238C708.821 169.432 720.698 183.685 741.286 183.685C757.123 183.685 767.944 176.294 772.431 161.248H808.062C800.409 193.979 775.071 211.401 741.286 211.401V211.403ZM708.031 122.45H771.64C768.473 101.331 757.653 89.7192 739.966 89.7192C722.279 89.7192 711.195 101.07 708.028 122.45H708.031Z" fill="black"/>
<path d="M797.667 65.9606H834.091L866.819 165.738L870.513 181.047L873.944 165.738L906.672 65.9606H941.25L890.308 207.446H848.606L797.664 65.9606H797.667Z" fill="black"/>
<path d="M631.922 294.554C626.379 275.022 611.335 264.728 591.274 264.728C561.183 264.728 543.765 289.277 543.765 329.134C543.765 368.992 560.922 393.014 591.274 393.014C610.278 393.014 625.322 383.247 631.393 364.508H668.871C659.37 401.989 628.487 422.58 591.801 422.58C539.276 422.58 507.338 387.21 507.338 329.137C507.338 271.064 539.803 235.167 592.328 235.167C629.543 235.167 660.954 255.492 669.135 294.559H631.92L631.922 294.554Z" fill="black"/>
<path d="M677.48 323.591C681.967 292.18 704.931 273.175 740.562 273.175C779.891 273.175 799.949 296.404 799.949 329.135V384.04C799.949 401.462 801.532 411.227 804.172 418.62H769.067C767.22 413.869 766.427 407.006 766.164 399.351C754.55 415.716 737.13 422.58 720.238 422.58C692.524 422.58 672.729 408.855 672.729 381.666C672.729 362.397 683.55 347.879 705.194 340.752C723.935 334.415 742.146 332.834 765.9 332.568V329.137C765.9 310.925 757.19 301.157 738.449 301.157C722.349 301.157 713.639 310.132 711.528 323.593H677.48V323.591ZM728.951 397.499C749.802 397.499 765.903 380.604 765.903 359.488V353.418C717.864 354.211 706.78 365.559 706.78 379.814C706.78 390.638 715.227 397.499 728.951 397.499Z" fill="black"/>
<path d="M815.972 277.133H849.756V297.722C858.994 280.827 873.247 273.173 888.558 273.173C894.364 273.173 899.642 274.756 902.282 277.13V306.43C897.795 305.11 892.781 304.583 886.708 304.583C861.107 304.583 849.756 319.894 849.756 343.387V418.615H815.972V277.13V277.133Z" fill="black"/>
<path d="M967.554 422.575C924.796 422.575 898.665 394.332 898.665 348.137C898.665 301.943 925.059 273.173 966.235 273.173C1007.41 273.173 1033.28 301.152 1033.28 346.817V354.735H933.506C935.09 380.604 946.967 394.857 967.554 394.857C983.392 394.857 994.212 387.466 998.699 372.42H1034.33C1026.68 405.151 1001.34 422.573 967.554 422.573V422.575ZM934.297 333.622H997.906C994.739 312.503 983.919 300.891 966.232 300.891C948.545 300.891 937.461 312.242 934.294 333.622H934.297Z" fill="black"/>
<path d="M1105.65 422.575C1062.89 422.575 1036.76 394.332 1036.76 348.137C1036.76 301.943 1063.15 273.173 1104.33 273.173C1145.5 273.173 1171.37 301.152 1171.37 346.817V354.735H1071.6C1073.18 380.604 1085.06 394.857 1105.65 394.857C1121.49 394.857 1132.31 387.466 1136.79 372.42H1172.43C1164.77 405.151 1139.43 422.573 1105.65 422.573V422.575ZM1072.39 333.622H1136C1132.83 312.503 1122.01 300.891 1104.33 300.891C1086.64 300.891 1075.56 312.242 1072.39 333.622H1072.39Z" fill="black"/>
<path d="M1181.69 277.133H1215.47V297.722C1224.71 280.827 1238.97 273.173 1254.28 273.173C1260.08 273.173 1265.36 274.756 1268 277.13V306.43C1263.51 305.11 1258.5 304.583 1252.43 304.583C1226.82 304.583 1215.47 319.894 1215.47 343.387V418.615H1181.69V277.13V277.133Z" fill="black"/>
</g>
<defs>
<clipPath id="clip0_303_16">
<rect width="1268" height="451" fill="white"/>
</clipPath>
</defs>
</svg>