<svg width="884" height="610" viewBox="0 0 884 610" fill="none" xmlns="http://www.w3.org/2000/svg">
<g opacity="0.5">
<path opacity="0.6" fill-rule="evenodd" clip-rule="evenodd" d="M575.124 97.0087C713.585 71.2 855.787 1.85679 980.488 67.3735C1137.12 149.668 1320.39 298.486 1290.84 473.037C1260.98 649.346 999.327 645.517 863.02 761.146C749.476 857.465 720.137 1046.58 575.124 1080.17C411.83 1118.01 220.712 1063.89 113.776 934.728C11.373 811.039 33.8519 628.945 72.4684 473.037C102.268 352.726 197.851 268.977 297.057 194.763C378.857 133.57 474.722 115.723 575.124 97.0087Z" fill="#99D98C"/>
<path opacity="0.6" fill-rule="evenodd" clip-rule="evenodd" d="M535.124 57.0087C673.585 31.2 815.787 -38.1432 940.488 27.3735C1097.12 109.668 1280.39 258.486 1250.84 433.037C1220.98 609.346 959.327 605.517 823.02 721.146C709.476 817.465 680.137 1006.58 535.124 1040.17C371.83 1078.01 180.712 1023.89 73.776 894.728C-28.627 771.039 -6.14811 588.945 32.4684 433.037C62.2681 312.726 157.851 228.977 257.057 154.763C338.857 93.5701 434.722 75.7235 535.124 57.0087Z" fill="#99D98C"/>
</g>
</svg>
