<svg width="16" height="16" viewBox="0 0 16 16" fill="none" xmlns="http://www.w3.org/2000/svg">
<path d="M5.78016 9.33331H2.66683C1.9335 9.33331 1.3335 9.93331 1.3335 10.6666V14.6666H5.78016V9.33331Z" stroke="#A3A3A3" stroke-width="1.5" stroke-miterlimit="10" stroke-linecap="round" stroke-linejoin="round"/>
<path d="M8.88677 6.66669H7.10677C6.37344 6.66669 5.77344 7.26669 5.77344 8.00002V14.6667H10.2201V8.00002C10.2201 7.26669 9.62677 6.66669 8.88677 6.66669Z" stroke="#A3A3A3" stroke-width="1.5" stroke-miterlimit="10" stroke-linecap="round" stroke-linejoin="round"/>
<path d="M13.3335 11.3333H10.2202V14.6666H14.6669V12.6666C14.6669 11.9333 14.0669 11.3333 13.3335 11.3333Z" stroke="#A3A3A3" stroke-width="1.5" stroke-miterlimit="10" stroke-linecap="round" stroke-linejoin="round"/>
<path d="M8.34682 1.38L8.70015 2.08667C8.74682 2.18667 8.87349 2.28 8.98015 2.29333L9.62015 2.4C10.0268 2.46667 10.1268 2.76666 9.83349 3.05332L9.33349 3.55332C9.24682 3.63999 9.20015 3.8 9.22682 3.91333L9.36682 4.52667C9.48015 5.01334 9.22015 5.20001 8.79349 4.94668L8.19349 4.59334C8.08682 4.52668 7.90682 4.52668 7.80015 4.59334L7.20015 4.94668C6.77349 5.20001 6.51349 5.01334 6.62682 4.52667L6.76682 3.91333C6.79349 3.8 6.74682 3.63332 6.66015 3.55332L6.16682 3.06C5.87349 2.76666 5.96682 2.47332 6.38015 2.40666L7.02015 2.30001C7.12682 2.28001 7.25349 2.18668 7.30015 2.09334L7.65349 1.38666C7.84682 0.99999 8.15349 1 8.34682 1.38Z" stroke="#A3A3A3" stroke-width="1.5" stroke-linecap="round" stroke-linejoin="round"/>
</svg>
