<svg xmlns="http://www.w3.org/2000/svg" viewBox="0 0 168 40" fill="none">
  <path d="M40.27 5.7C34.72 5.7 30.56 9.24 28.83 14.44C25.81 9.12 23.58 3.12 22.38 0H15.45V21.38C15.45 24.72 12.74 27.44 9.39 27.44C6.05 27.44 3.33 24.72 3.33 21.38V0H0V21.38C0 24.72 1.04 27.74 2.92 29.8C4.98 32 7.82 33.14 11.1 33.14C17.1 33.14 22.01 28.22 22.01 21.38V17.82C23.16 20.18 24.68 22.58 26.5 24.82L22.88 40H30.04L32.58 27.84C34.74 29.42 37.36 30.36 40.28 30.36C47.32 30.36 53.02 24.5 53.02 17.28C53.02 10.06 47.32 5.7 40.27 5.7ZM40.27 24.14C37.45 24.14 34.67 22.78 32.53 20.72L33.27 17.36V17.24C33.77 14.06 35.71 9.92 40.27 9.92C44.37 9.92 47.49 13.1 47.49 17.24C47.49 21.38 44.01 24.14 40.27 24.14Z" fill="#ffffff"/>
  <text x="56" y="24" font-family="system-ui, -apple-system, sans-serif" font-size="22" font-weight="500" fill="#ffffff">work</text>
</svg>
