<svg width="1600" height="900" viewBox="0 0 1600 900" fill="none" xmlns="http://www.w3.org/2000/svg">
  <defs>
    <linearGradient id="bg" x1="184" y1="88" x2="1463" y2="851" gradientUnits="userSpaceOnUse">
      <stop stop-color="#0C2245"/>
      <stop offset="0.48" stop-color="#2F2F82"/>
      <stop offset="1" stop-color="#0D746A"/>
    </linearGradient>
    <radialGradient id="glowA" cx="0" cy="0" r="1" gradientUnits="userSpaceOnUse" gradientTransform="translate(446 273) rotate(44.6) scale(352 248)">
      <stop stop-color="#47D6FF" stop-opacity="0.7"/>
      <stop offset="1" stop-color="#47D6FF" stop-opacity="0"/>
    </radialGradient>
    <radialGradient id="glowB" cx="0" cy="0" r="1" gradientUnits="userSpaceOnUse" gradientTransform="translate(1192 624) rotate(145) scale(346 242)">
      <stop stop-color="#5CFFA9" stop-opacity="0.68"/>
      <stop offset="1" stop-color="#5CFFA9" stop-opacity="0"/>
    </radialGradient>
    <linearGradient id="chipLeft" x1="307" y1="451" x2="678" y2="451" gradientUnits="userSpaceOnUse">
      <stop stop-color="#19A2E6"/>
      <stop offset="1" stop-color="#376BFF"/>
    </linearGradient>
    <linearGradient id="chipRight" x1="924" y1="451" x2="1295" y2="451" gradientUnits="userSpaceOnUse">
      <stop stop-color="#12A96E"/>
      <stop offset="1" stop-color="#59D978"/>
    </linearGradient>
    <linearGradient id="arrowOut" x1="704" y1="339" x2="1010" y2="339" gradientUnits="userSpaceOnUse">
      <stop stop-color="#55E2FF"/>
      <stop offset="1" stop-color="#6AFFB4"/>
    </linearGradient>
    <linearGradient id="arrowIn" x1="1008" y1="560" x2="703" y2="560" gradientUnits="userSpaceOnUse">
      <stop stop-color="#FFD672"/>
      <stop offset="1" stop-color="#FF8E68"/>
    </linearGradient>
  </defs>

  <rect width="1600" height="900" rx="44" fill="url(#bg)"/>
  <rect width="1600" height="900" rx="44" fill="url(#glowA)"/>
  <rect width="1600" height="900" rx="44" fill="url(#glowB)"/>

  <g opacity="0.26">
    <path d="M0 801C166 695 266 681 397 700C546 721 657 794 810 785C962 776 1065 697 1200 680C1348 661 1456 705 1600 777V900H0V801Z" fill="#061731"/>
    <path d="M0 833C148 754 274 745 404 763C542 782 654 851 808 848C962 845 1064 786 1198 772C1352 756 1479 804 1600 861V900H0V833Z" fill="#081322"/>
  </g>

  <g filter="url(#shadow)">
    <rect x="307" y="264" width="371" height="373" rx="40" fill="url(#chipLeft)"/>
    <rect x="924" y="264" width="371" height="373" rx="40" fill="url(#chipRight)"/>
  </g>

  <rect x="338" y="295" width="309" height="311" rx="28" stroke="rgba(255,255,255,0.35)" stroke-width="2"/>
  <rect x="955" y="295" width="309" height="311" rx="28" stroke="rgba(255,255,255,0.35)" stroke-width="2"/>

  <circle cx="492.5" cy="450.5" r="110.5" fill="rgba(255,255,255,0.14)"/>
  <circle cx="1109.5" cy="450.5" r="110.5" fill="rgba(255,255,255,0.14)"/>

  <text x="492.5" y="470" text-anchor="middle" fill="#FFFFFF" font-family="Arial, Helvetica, sans-serif" font-size="130" font-weight="700">₦</text>
  <text x="1109.5" y="477" text-anchor="middle" fill="#FFFFFF" font-family="Arial, Helvetica, sans-serif" font-size="78" font-weight="700">USDC</text>

  <path d="M704 339H962" stroke="url(#arrowOut)" stroke-width="26" stroke-linecap="round"/>
  <path d="M962 295L1010 339L962 383" stroke="url(#arrowOut)" stroke-width="26" stroke-linecap="round" stroke-linejoin="round"/>

  <path d="M1008 560H750" stroke="url(#arrowIn)" stroke-width="26" stroke-linecap="round"/>
  <path d="M750 516L703 560L750 604" stroke="url(#arrowIn)" stroke-width="26" stroke-linecap="round" stroke-linejoin="round"/>

  <rect x="640" y="672" width="320" height="86" rx="43" fill="rgba(255,255,255,0.14)" stroke="rgba(255,255,255,0.28)" stroke-width="2"/>
  <text x="800" y="726" text-anchor="middle" fill="#FFFFFF" font-family="Arial, Helvetica, sans-serif" font-size="44" font-weight="700">ON / OFF RAMP</text>

  <defs>
    <filter id="shadow" x="257" y="220" width="1088" height="461" filterUnits="userSpaceOnUse" color-interpolation-filters="sRGB">
      <feFlood flood-opacity="0" result="BackgroundImageFix"/>
      <feColorMatrix in="SourceAlpha" type="matrix" values="0 0 0 0 0 0 0 0 0 0 0 0 0 0 0 0 0 0 127 0" result="hardAlpha"/>
      <feOffset dy="16"/>
      <feGaussianBlur stdDeviation="25"/>
      <feComposite in2="hardAlpha" operator="out"/>
      <feColorMatrix type="matrix" values="0 0 0 0 0.00958333 0 0 0 0 0.0197234 0 0 0 0 0.0997578 0 0 0 0.36 0"/>
      <feBlend mode="normal" in2="BackgroundImageFix" result="effect1_dropShadow_001"/>
      <feBlend mode="normal" in="SourceGraphic" in2="effect1_dropShadow_001" result="shape"/>
    </filter>
  </defs>
</svg>
